<svg width="18" height="19" viewBox="0 0 18 19" fill="none" xmlns="http://www.w3.org/2000/svg">
<g clip-path="url(#clip0_3887_318)">
<path d="M18 9.45605C18 4.48549 13.9706 0.456055 9 0.456055C4.02943 0.456055 0 4.48549 0 9.45605C0 13.9481 3.29115 17.6715 7.59375 18.3467V12.0576H5.30859V9.45605H7.59375V7.47324C7.59375 5.21762 8.93742 3.97168 10.9932 3.97168C11.9776 3.97168 13.0078 4.14746 13.0078 4.14746V6.3623H11.873C10.755 6.3623 10.4062 7.05611 10.4062 7.76855V9.45605H12.9023L12.5033 12.0576H10.4062V18.3467C14.7088 17.6715 18 13.9481 18 9.45605Z" fill="url(#paint0_linear_3887_318)"/>
</g>
<defs>
<linearGradient id="paint0_linear_3887_318" x1="9" y1="0.456055" x2="9" y2="18.3467" gradientUnits="userSpaceOnUse">
<stop stop-color="#CCCCCC"/>
<stop offset="1" stop-color="white"/>
</linearGradient>
<clipPath id="clip0_3887_318">
<rect width="18" height="18" fill="white" transform="translate(0 0.456055)"/>
</clipPath>
</defs>
</svg>
