<svg width="18" height="19" viewBox="0 0 18 19" fill="none" xmlns="http://www.w3.org/2000/svg">
<g clip-path="url(#clip0_3887_324)">
<path d="M16.6676 0.456055H1.32891C0.594141 0.456055 0 1.03613 0 1.75332V17.1553C0 17.8725 0.594141 18.4561 1.32891 18.4561H16.6676C17.4023 18.4561 18 17.8725 18 17.1588V1.75332C18 1.03613 17.4023 0.456055 16.6676 0.456055ZM5.34023 15.7947H2.66836V7.20254H5.34023V15.7947ZM4.0043 6.03184C3.14648 6.03184 2.45391 5.33926 2.45391 4.48496C2.45391 3.63066 3.14648 2.93809 4.0043 2.93809C4.85859 2.93809 5.55117 3.63066 5.55117 4.48496C5.55117 5.33574 4.85859 6.03184 4.0043 6.03184ZM15.3387 15.7947H12.6703V11.6182C12.6703 10.6232 12.6527 9.34004 11.2816 9.34004C9.89297 9.34004 9.68203 10.4264 9.68203 11.5479V15.7947H7.01719V7.20254H9.57656V8.37676H9.61172C9.9668 7.70176 10.8387 6.98809 12.1359 6.98809C14.8395 6.98809 15.3387 8.76699 15.3387 11.0803V15.7947Z" fill="url(#paint0_linear_3887_324)"/>
</g>
<defs>
<linearGradient id="paint0_linear_3887_324" x1="9" y1="0.456055" x2="9" y2="18.4561" gradientUnits="userSpaceOnUse">
<stop stop-color="#CCCCCC"/>
<stop offset="1" stop-color="white"/>
</linearGradient>
<clipPath id="clip0_3887_324">
<rect width="18" height="18" fill="white" transform="translate(0 0.456055)"/>
</clipPath>
</defs>
</svg>
